<svg width="62" height="47" viewBox="0 0 62 47" fill="none" xmlns="http://www.w3.org/2000/svg">
<path opacity="0.6" d="M33.1875 46.0625V32.9375H41.9375L31 19.8125L20.0625 32.9375H28.8125V46.0625H17.875V45.9531C17.5075 45.975 17.1575 46.0625 16.7812 46.0625C12.43 46.0625 8.25705 44.334 5.18028 41.2572C2.10351 38.1805 0.375 34.0075 0.375 29.6562C0.375 21.2388 6.74063 14.3788 14.9088 13.4381C15.6249 9.69442 17.6232 6.31727 20.56 3.88753C23.4968 1.45779 27.1884 0.127336 31 0.125C34.8121 0.127107 38.5044 1.45738 41.4419 3.88707C44.3794 6.31677 46.3786 9.69404 47.0956 13.4381C55.2637 14.3788 61.6206 21.2388 61.6206 29.6562C61.6206 34.0075 59.8921 38.1805 56.8153 41.2572C53.7386 44.334 49.5656 46.0625 45.2144 46.0625C44.8469 46.0625 44.4925 45.975 44.1206 45.9531V46.0625H33.1875Z" fill="white"/>
</svg>
