<svg width="102" height="40" viewBox="0 0 102 40" fill="none" xmlns="http://www.w3.org/2000/svg">
<path d="M16.844 0.00122828C13.7214 -9.55722e-06 10.6601 0.856616 8.00236 2.47529C5.34465 4.09397 3.19538 6.41086 1.79495 9.16683C0.614711 11.4838 0 14.0413 0 16.6349C0 19.2284 0.614711 21.786 1.79495 24.1029C3.19538 26.8589 5.34465 29.1757 8.00236 30.7944C10.6601 32.4131 13.7214 33.2697 16.844 33.2685C21.3914 33.2685 25.2164 31.7912 28.0086 29.2522C31.1875 26.3565 33.0235 22.0759 33.0235 17.0147C33.017 15.8811 32.9175 14.7498 32.726 13.6321H16.8482V20.0363H25.9431C25.7568 21.0589 25.3634 22.0339 24.7865 22.9028C24.2096 23.7718 23.461 24.5168 22.5857 25.0933C21.0727 26.1047 19.1262 26.6839 16.8482 26.6839C12.4538 26.6839 8.7266 23.7588 7.39212 19.8181C6.68889 17.7527 6.68889 15.517 7.39212 13.4517C8.7266 9.50676 12.4538 6.58585 16.8482 6.58585C19.2496 6.54616 21.5703 7.44169 23.3081 9.07869L28.1191 4.33642C25.0727 1.50417 21.0278 -0.0500198 16.844 0.00122828ZM44.4728 2.30941V31.2667H48.2383V19.5369H54.4644C57.0257 19.5369 59.1819 18.7143 60.9328 17.0692C61.8047 16.2978 62.4973 15.3494 62.9631 14.2889C63.4289 13.2284 63.657 12.0809 63.6316 10.9252C63.6493 9.77557 63.4176 8.63547 62.9521 7.58153C62.4866 6.5276 61.7981 5.58424 60.9328 4.81485C60.0752 3.99638 59.0623 3.35333 57.9522 2.92264C56.8422 2.49196 55.6569 2.28213 54.4644 2.30522L44.4728 2.30941ZM54.7874 5.87661C55.4444 5.88888 56.0922 6.03071 56.6929 6.29376C57.2936 6.55682 57.8349 6.93579 58.2851 7.40841C58.764 7.86833 59.1446 8.41836 59.4045 9.02602C59.6644 9.63367 59.7983 10.2866 59.7983 10.9462C59.7983 11.6059 59.6644 12.2588 59.4045 12.8664C59.1446 13.4741 58.764 14.0241 58.2851 14.484C57.8039 14.9765 57.2237 15.3641 56.5819 15.6221C55.94 15.8801 55.2506 16.0028 54.5579 15.9823H48.2383V5.87661H54.7874ZM72.3142 10.8077C68.7386 10.8077 66.037 12.1017 64.2095 14.6897L67.5287 16.7503C68.7527 14.9988 70.4173 14.1231 72.5224 14.1231C73.865 14.1048 75.1648 14.5891 76.1604 15.4787C76.6532 15.8775 77.0488 16.3807 77.318 16.951C77.5873 17.5212 77.7232 18.1439 77.7158 18.7731V19.6208C76.2709 18.8094 74.4292 18.4052 72.1909 18.408C69.5673 18.408 67.4721 19.0151 65.9053 20.2293C64.3328 21.438 63.548 23.0677 63.5508 25.1185C63.5349 26.0399 63.7269 26.9533 64.1128 27.7924C64.4987 28.6316 65.0689 29.3753 65.782 29.9699C67.2695 31.2653 69.1182 31.913 71.3282 31.913C73.9207 31.913 75.996 30.7798 77.5544 28.5136H77.7158V31.2625H81.3198V19.0543C81.3198 16.4943 80.5151 14.4799 78.9058 13.011C77.2909 11.5422 75.0936 10.8077 72.3142 10.8077ZM81.9318 11.454L90.2022 30.0118L85.5357 40H89.4244L102 11.4498H97.8988L92.0849 25.6809H91.9999L86.0245 11.454H81.9318ZM72.8114 21.3918C74.9109 21.3918 76.5485 21.8535 77.7243 22.7767C77.7243 24.3379 77.101 25.699 75.8544 26.8601C75.2997 27.4122 74.6395 27.8501 73.9122 28.1484C73.1848 28.4466 72.4048 28.5993 71.6172 28.5976C70.5551 28.6179 69.5187 28.2738 68.6847 27.6239C68.2971 27.3462 67.982 26.9813 67.7655 26.5595C67.549 26.1377 67.4372 25.6711 67.4395 25.1982C67.4395 24.1267 67.9537 23.2216 68.9822 22.483C70.0022 21.7555 71.2814 21.3918 72.8114 21.3918Z" fill="white"/>
</svg>
